<?xml version="1.0" encoding="UTF-8" standalone="no"?>
<svg
   width="64"
   height="64"
   viewBox="0 0 64 64"
   version="1.1"
   xml:space="preserve"
   style="clip-rule:evenodd;fill-rule:evenodd;stroke-linecap:round;stroke-linejoin:round"
   id="svg65"
   sodipodi:docname="com.github.jeysonflores.elementarycpp.svg"
   inkscape:version="1.1 (c68e22c387, 2021-05-23)"
   xmlns:inkscape="http://www.inkscape.org/namespaces/inkscape"
   xmlns:sodipodi="http://sodipodi.sourceforge.net/DTD/sodipodi-0.dtd"
   xmlns="http://www.w3.org/2000/svg"
   xmlns:svg="http://www.w3.org/2000/svg"><sodipodi:namedview
   id="namedview67"
   pagecolor="#ffffff"
   bordercolor="#999999"
   borderopacity="1"
   inkscape:pageshadow="0"
   inkscape:pageopacity="0"
   inkscape:pagecheckerboard="0"
   showgrid="false"
   inkscape:zoom="4.140625"
   inkscape:cx="33.449057"
   inkscape:cy="41.177358"
   inkscape:window-width="1366"
   inkscape:window-height="707"
   inkscape:window-x="0"
   inkscape:window-y="30"
   inkscape:window-maximized="1"
   inkscape:current-layer="svg65" />
    
    
    
    
    
    
    
    
    <g
   id="g992"
   transform="matrix(0.49541739,0,0,0.49541739,0.5412435,-0.4312608)"><path
     id="path3041"
     d="m 119,118 c -0.005,3.291 -24.831,5.999 -55,5.999 -30.169,0 -54.995,-2.708 -55,-5.999 0,0 0,-0.001 0,-0.001 0,-3.292 24.828,-6 55,-6 30.172,0 55,2.708 55,6 0,0 0,0.001 0,0.001 z"
     style="fill:url(#_Radial1);fill-rule:nonzero" /><g
     id="g3712"
     transform="matrix(2.84211,0,0,0.714286,-4.21053,87.4286)">
        <g
   opacity="0.4"
   id="g8">
            <rect
   id="rect2801"
   x="38"
   y="40"
   width="5"
   height="7"
   style="fill:url(#_Radial2)" />
            <g
   id="rect3696"
   transform="scale(-1)">
                <rect
   x="-10"
   y="-47"
   width="5"
   height="7"
   style="fill:url(#_Radial3)"
   id="rect4" />
            </g>
            <rect
   id="rect3700"
   x="10"
   y="40"
   width="28"
   height="7"
   style="fill:url(#_Linear4)" />
        </g>
    </g><path
     id="rect5505-21-3"
     d="m 115.5,21.555 c 0,-3.342 -2.713,-6.055 -6.055,-6.055 h -90.89 c -3.342,0 -6.055,2.713 -6.055,6.055 v 90.89 c 0,3.342 2.713,6.055 6.055,6.055 h 90.89 c 3.342,0 6.055,-2.713 6.055,-6.055 z"
     style="fill:url(#_Radial5)" /><path
     id="rect6741-7"
     d="m 114.5,21.5 c 0,-2.76 -2.24,-5 -5,-5 h -91 c -2.76,0 -5,2.24 -5,5 v 91 c 0,2.76 2.24,5 5,5 h 91 c 2.76,0 5,-2.24 5,-5 z"
     style="fill:none;stroke:url(#_Linear6);stroke-width:1px" /><path
     id="rect5505-21-6"
     d="m 115.5,21.5 c 0,-3.311 -2.689,-6 -6,-6 h -91 c -3.311,0 -6,2.689 -6,6 v 91 c 0,3.311 2.689,6 6,6 h 91 c 3.311,0 6,-2.689 6,-6 z"
     style="fill:none;stroke:#403634;stroke-width:1px;stroke-opacity:0.5" /><path
     id="path4690-5"
     d="m 60,40 c -0.72,0 -1.32,2.78 -1.672,6.754 -1.862,0.508 -3.65,1.259 -5.316,2.234 -3.071,-2.574 -5.47,-4.127 -5.981,-3.617 l -5.66,5.66 c -0.51,0.511 1.043,2.91 3.617,5.981 -0.968,1.667 -1.712,3.455 -2.215,5.316 C 38.789,62.68 36,63.279 36,64 v 8 c 0,0.72 2.78,1.32 6.754,1.672 0.505,1.866 1.253,3.658 2.226,5.328 -2.568,3.066 -4.119,5.459 -3.609,5.969 l 5.66,5.66 c 0.51,0.509 2.9,-1.038 5.961,-3.602 1.675,0.965 3.469,1.704 5.336,2.2 C 58.68,93.211 59.279,96 60,96 h 8 c 0.72,0 1.32,-2.78 1.672,-6.754 1.862,-0.508 3.65,-1.259 5.316,-2.234 3.071,2.574 5.47,4.127 5.981,3.617 l 5.66,-5.66 c 0.51,-0.511 -1.043,-2.91 -3.617,-5.981 0.968,-1.667 1.712,-3.455 2.215,-5.316 C 89.211,73.32 92,72.721 92,72 V 64 C 92,63.28 89.22,62.68 85.246,62.328 84.741,60.462 83.993,58.67 83.02,57 c 2.568,-3.066 4.119,-5.459 3.609,-5.969 l -5.66,-5.66 c -0.51,-0.509 -2.9,1.038 -5.961,3.602 -1.675,-0.965 -3.469,-1.704 -5.336,-2.2 C 69.32,42.789 68.721,40 68,40 Z m 4,18 c 5.486,0 10,4.514 10,10 0,5.486 -4.514,10 -10,10 -5.486,0 -10,-4.514 -10,-10 0,-5.486 4.514,-10 10,-10 z"
     style="fill:#ffffff;fill-opacity:0.1;fill-rule:nonzero" /><path
     id="path4690"
     d="m 60,39 c -0.72,0 -1.32,2.78 -1.672,6.754 -1.862,0.508 -3.65,1.259 -5.316,2.234 -3.071,-2.574 -5.47,-4.127 -5.981,-3.617 l -5.66,5.66 c -0.51,0.511 1.043,2.91 3.617,5.981 -0.968,1.667 -1.712,3.455 -2.215,5.316 C 38.789,61.68 36,62.279 36,63 v 8 c 0,0.72 2.78,1.32 6.754,1.672 0.505,1.866 1.253,3.658 2.226,5.328 -2.568,3.066 -4.119,5.459 -3.609,5.969 l 5.66,5.66 c 0.51,0.509 2.9,-1.038 5.961,-3.602 1.675,0.965 3.469,1.704 5.336,2.2 C 58.68,92.211 59.279,95 60,95 h 8 c 0.72,0 1.32,-2.78 1.672,-6.754 1.862,-0.508 3.65,-1.259 5.316,-2.234 3.071,2.574 5.47,4.127 5.981,3.617 l 5.66,-5.66 c 0.51,-0.511 -1.043,-2.91 -3.617,-5.981 0.968,-1.667 1.712,-3.455 2.215,-5.316 C 89.211,72.32 92,71.721 92,71 V 63 C 92,62.28 89.22,61.68 85.246,61.328 84.741,59.462 83.993,57.67 83.02,56 c 2.568,-3.066 4.119,-5.459 3.609,-5.969 l -5.66,-5.66 c -0.51,-0.509 -2.9,1.038 -5.961,3.602 -1.675,-0.965 -3.469,-1.704 -5.336,-2.2 C 69.32,41.789 68.721,39 68,39 Z m 4,18 c 5.486,0 10,4.514 10,10 0,5.486 -4.514,10 -10,10 -5.486,0 -10,-4.514 -10,-10 0,-5.486 4.514,-10 10,-10 z"
     style="fill:#403634;fill-rule:nonzero" /><path
     id="path4278"
     d="m 60.082,39.5 c -0.027,0.03 -0.079,0.094 -0.139,0.213 -0.13,0.259 -0.281,0.703 -0.418,1.277 -0.273,1.149 -0.512,2.824 -0.687,4.797 -0.02,0.215 -0.171,0.395 -0.379,0.451 -1.817,0.496 -3.567,1.235 -5.193,2.186 -0.188,0.109 -0.424,0.088 -0.59,-0.051 -1.525,-1.278 -2.883,-2.301 -3.893,-2.924 -0.505,-0.311 -0.928,-0.523 -1.205,-0.615 -0.126,-0.042 -0.209,-0.051 -0.25,-0.053 l -5.545,5.547 c 0.002,0.041 0.011,0.124 0.053,0.25 0.092,0.277 0.302,0.7 0.613,1.205 0.623,1.01 1.646,2.368 2.924,3.893 0.139,0.166 0.159,0.4 0.051,0.588 -0.945,1.627 -1.674,3.379 -2.164,5.195 -0.057,0.209 -0.238,0.36 -0.453,0.379 -1.979,0.175 -3.659,0.414 -4.811,0.687 -0.576,0.137 -1.021,0.286 -1.281,0.416 -0.119,0.06 -0.185,0.112 -0.215,0.139 v 7.838 c 0.03,0.027 0.094,0.079 0.213,0.139 0.259,0.13 0.703,0.281 1.277,0.418 1.149,0.273 2.824,0.512 4.797,0.687 0.216,0.019 0.397,0.17 0.453,0.379 0.493,1.821 1.227,3.575 2.176,5.205 0.109,0.188 0.089,0.424 -0.051,0.59 -1.275,1.522 -2.294,2.877 -2.916,3.885 -0.311,0.504 -0.522,0.927 -0.613,1.203 -0.042,0.126 -0.051,0.207 -0.053,0.248 l 5.545,5.547 c 0.041,-0.002 0.122,-0.011 0.248,-0.053 0.276,-0.091 0.698,-0.303 1.201,-0.613 1.007,-0.621 2.359,-1.638 3.879,-2.91 0.166,-0.14 0.401,-0.161 0.588,-0.053 1.634,0.941 3.391,1.667 5.213,2.15 0.21,0.056 0.362,0.237 0.381,0.453 0.175,1.979 0.414,3.659 0.687,4.811 0.137,0.576 0.286,1.021 0.416,1.281 0.06,0.119 0.112,0.185 0.139,0.215 h 7.838 c 0.027,-0.03 0.079,-0.094 0.139,-0.213 0.13,-0.259 0.281,-0.703 0.418,-1.277 0.273,-1.149 0.512,-2.824 0.687,-4.797 0.02,-0.215 0.171,-0.395 0.379,-0.451 1.817,-0.496 3.567,-1.235 5.193,-2.186 0.188,-0.109 0.424,-0.088 0.59,0.051 1.525,1.278 2.883,2.301 3.893,2.924 0.505,0.311 0.928,0.523 1.205,0.615 0.126,0.042 0.209,0.051 0.25,0.053 l 5.545,-5.547 c -0.002,-0.041 -0.011,-0.124 -0.053,-0.25 -0.092,-0.277 -0.302,-0.7 -0.613,-1.205 -0.623,-1.01 -1.646,-2.368 -2.924,-3.893 -0.139,-0.166 -0.159,-0.4 -0.051,-0.588 0.945,-1.627 1.674,-3.379 2.164,-5.195 0.057,-0.209 0.238,-0.36 0.453,-0.379 1.979,-0.175 3.659,-0.414 4.811,-0.687 0.576,-0.137 1.021,-0.286 1.281,-0.416 0.119,-0.06 0.185,-0.112 0.215,-0.139 v -7.838 c -0.03,-0.027 -0.094,-0.079 -0.213,-0.139 -0.259,-0.13 -0.703,-0.281 -1.277,-0.418 -1.149,-0.273 -2.824,-0.512 -4.797,-0.687 -0.216,-0.019 -0.397,-0.17 -0.453,-0.379 -0.493,-1.821 -1.227,-3.575 -2.176,-5.205 -0.109,-0.188 -0.089,-0.424 0.051,-0.59 1.275,-1.522 2.294,-2.877 2.916,-3.885 0.311,-0.504 0.522,-0.927 0.613,-1.203 0.042,-0.126 0.051,-0.207 0.053,-0.248 l -5.545,-5.547 c -0.041,0.002 -0.122,0.011 -0.248,0.053 -0.276,0.091 -0.698,0.303 -1.201,0.613 -1.007,0.621 -2.359,1.638 -3.879,2.91 -0.166,0.14 -0.401,0.161 -0.588,0.053 -1.634,-0.941 -3.391,-1.667 -5.213,-2.15 -0.21,-0.056 -0.362,-0.237 -0.381,-0.453 C 68.987,43.828 68.748,42.148 68.475,40.996 68.338,40.42 68.189,39.975 68.059,39.715 67.999,39.596 67.947,39.53 67.92,39.5 Z"
     style="fill:none;stroke:#000000;stroke-width:1px;stroke-linecap:butt;stroke-linejoin:miter;stroke-opacity:0.05" /><path
     id="path4110"
     d="m 63.998,77.495 c 6.186,0.198 11.483,-5.981 10.346,-12.074 -0.739,-5.939 -7.213,-10.222 -12.96,-8.554 -5.824,1.329 -9.438,8.191 -7.217,13.75 1.432,4.052 5.532,6.939 9.831,6.878 z"
     style="fill:none;stroke:url(#_Linear7);stroke-width:1px;stroke-linecap:butt;stroke-linejoin:miter" /></g>
    <defs
   id="defs63">
        <radialGradient
   id="_Radial1"
   cx="0"
   cy="0"
   r="1"
   gradientUnits="userSpaceOnUse"
   gradientTransform="matrix(55,0,0,6,64,118)"><stop
     offset="0%"
     style="stop-color:black;stop-opacity:0.2"
     id="stop18" /><stop
     offset="100%"
     style="stop-color:black;stop-opacity:0"
     id="stop20" /></radialGradient>
        <radialGradient
   id="_Radial2"
   cx="0"
   cy="0"
   r="1"
   gradientUnits="userSpaceOnUse"
   gradientTransform="matrix(5.00946,0,0,3.5,37.993,43.5)"><stop
     offset="0%"
     style="stop-color:rgb(24,24,24);stop-opacity:1"
     id="stop23" /><stop
     offset="100%"
     style="stop-color:rgb(24,24,24);stop-opacity:0"
     id="stop25" /></radialGradient>
        <radialGradient
   id="_Radial3"
   cx="0"
   cy="0"
   r="1"
   gradientUnits="userSpaceOnUse"
   gradientTransform="matrix(5.00946,0,0,3.5,-10.007,-43.5)"><stop
     offset="0%"
     style="stop-color:rgb(24,24,24);stop-opacity:1"
     id="stop28" /><stop
     offset="100%"
     style="stop-color:rgb(24,24,24);stop-opacity:0"
     id="stop30" /></radialGradient>
        <linearGradient
   id="_Linear4"
   x1="0"
   y1="0"
   x2="1"
   y2="0"
   gradientUnits="userSpaceOnUse"
   gradientTransform="matrix(0,-7.02829,7.02829,0,25.0581,47.0277)"><stop
     offset="0%"
     style="stop-color:rgb(24,24,24);stop-opacity:0"
     id="stop33" /><stop
     offset="50%"
     style="stop-color:rgb(24,24,24);stop-opacity:1"
     id="stop35" /><stop
     offset="100%"
     style="stop-color:rgb(24,24,24);stop-opacity:0"
     id="stop37" /></linearGradient>
        <radialGradient
   id="_Radial5"
   cx="0"
   cy="0"
   r="1"
   gradientUnits="userSpaceOnUse"
   gradientTransform="matrix(0,317.852,-390.221,0,66.1949,-39.2709)"><stop
     offset="0%"
     style="stop-color:rgb(104,87,84);stop-opacity:1"
     id="stop40" /><stop
     offset="26%"
     style="stop-color:rgb(104,87,84);stop-opacity:1"
     id="stop42" /><stop
     offset="70%"
     style="stop-color:rgb(89,76,74);stop-opacity:1"
     id="stop44" /><stop
     offset="100%"
     style="stop-color:rgb(89,76,74);stop-opacity:1"
     id="stop46" /></radialGradient>
        <linearGradient
   id="_Linear6"
   x1="0"
   y1="0"
   x2="1"
   y2="0"
   gradientUnits="userSpaceOnUse"
   gradientTransform="matrix(0,103.73,-103.73,0,64,15.1351)"><stop
     offset="0%"
     style="stop-color:white;stop-opacity:0.3"
     id="stop49" /><stop
     offset="6%"
     style="stop-color:white;stop-opacity:0.0705882"
     id="stop51" /><stop
     offset="95%"
     style="stop-color:white;stop-opacity:0.0470588"
     id="stop53" /><stop
     offset="100%"
     style="stop-color:white;stop-opacity:0.117647"
     id="stop55" /></linearGradient>
        <linearGradient
   id="_Linear7"
   x1="0"
   y1="0"
   x2="1"
   y2="0"
   gradientUnits="userSpaceOnUse"
   gradientTransform="matrix(0,-11.1846,11.1846,0,75.213,77.7963)"><stop
     offset="0%"
     style="stop-color:black;stop-opacity:0.05"
     id="stop58" /><stop
     offset="100%"
     style="stop-color:black;stop-opacity:0"
     id="stop60" /></linearGradient>
    </defs>
</svg>
